Coordinates
version=1
nRows=10
nColumns=27
inDegrees=yes

Units are S.I. units (second, meters, Newtons, ...)
If the header above contains a line with 'inDegrees', this indicates whether rotational values are in degrees (yes) or radians (no).

endheader
time	pelvis_rotation	pelvis_tilt	pelvis_list	pelvis_tx	pelvis_ty	pelvis_tz	hip_flexion_r	hip_adduction_r	hip_rotation_r	knee_angle_r	knee_rotation_r	knee_adduction_r	knee_angle_r_beta	ankle_angle_r	subtalar_angle_r	mtp_angle_r	hip_flexion_l	hip_adduction_l	hip_rotation_l	knee_angle_l	knee_rotation_l	knee_adduction_l	knee_angle_l_beta	ankle_angle_l	subtalar_angle_l	mtp_angle_l
      3.91500000	      0.27337730	    -35.38112934	      6.25115265	      0.00638918	      0.80176035	     -1.17116436	     66.37916016	    -32.64080078	    -11.85765323	     39.27943478	      0.00000000	      0.00000000	      0.68555547	     -1.88762354	      0.00000000	      0.00000000	     59.79964588	    -21.21758191	    -13.53443425	     31.76193096	      0.00000000	      0.00000000	      0.55435027	     -4.50494077	      0.00000000	      0.00000000
      3.92000000	      0.56082021	    -35.88630497	      6.11130697	      0.00480251	      0.80006533	     -1.17084704	     67.21409364	    -32.78703489	    -12.04202897	     39.91507451	      0.00000000	      0.00000000	      0.69664947	     -1.77930736	      0.00000000	      0.00000000	     61.08165351	    -21.38598412	    -12.93175862	     32.51149666	      0.00000000	      0.00000000	      0.56743266	     -4.41942136	      0.00000000	      0.00000000
      3.92500000	      0.61561395	    -36.48284557	      5.53415778	      0.00317452	      0.79837919	     -1.17041374	     67.89158706	    -32.58744692	    -12.49054765	     40.39674288	      0.00000000	      0.00000000	      0.70505617	     -1.73615545	      0.00000000	      0.00000000	     62.64156235	    -21.92671229	    -12.17749074	     33.48616894	      0.00000000	      0.00000000	      0.58444390	     -4.24798929	      0.00000000	      0.00000000
      3.93000000	      0.70855311	    -36.47049329	      5.99762323	      0.00191854	      0.79672930	     -1.17039257	     68.73193086	    -32.96780608	    -11.82222681	     41.13230443	      0.00000000	      0.00000000	      0.71789414	     -1.63830521	      0.00000000	      0.00000000	     62.83460956	    -21.77229692	    -12.44209006	     33.86352731	      0.00000000	      0.00000000	      0.59103005	     -4.27564498	      0.00000000	      0.00000000
      3.93500000	      0.53613940	    -36.88240004	      6.10100188	      0.00030577	      0.79493787	     -1.17019264	     69.94374459	    -32.95638398	    -11.17312764	     41.84263908	      0.00000000	      0.00000000	      0.73029182	     -1.51335195	      0.00000000	      0.00000000	     63.61901963	    -22.01927198	    -12.63357243	     34.49069871	      0.00000000	      0.00000000	      0.60197625	     -4.22104274	      0.00000000	      0.00000000
      3.94000000	      0.66356510	    -37.09798507	      5.95131850	     -0.00096678	      0.79338799	     -1.16999006	     70.43126373	    -33.05569490	    -11.32908871	     42.32700084	      0.00000000	      0.00000000	      0.73874553	     -1.41675647	      0.00000000	      0.00000000	     64.44375833	    -22.19600015	    -12.21929422	     35.10420864	      0.00000000	      0.00000000	      0.61268402	     -4.14141037	      0.00000000	      0.00000000
      3.94500000	      0.65988186	    -37.36578826	      5.90386805	     -0.00240794	      0.79177828	     -1.16985921	     71.17683728	    -33.10762287	    -11.16520370	     42.86401776	      0.00000000	      0.00000000	      0.74811824	     -1.41197704	      0.00000000	      0.00000000	     65.21849342	    -22.38569730	    -12.04109749	     35.71313867	      0.00000000	      0.00000000	      0.62331186	     -4.06241696	      0.00000000	      0.00000000
      3.95000000	      0.61774171	    -37.58495016	      5.85329115	     -0.00375004	      0.79021612	     -1.16970125	     71.85513701	    -33.13620053	    -10.99124438	     43.36886083	      0.00000000	      0.00000000	      0.75692941	     -1.36275861	      0.00000000	      0.00000000	     65.89622772	    -22.59426964	    -11.92422006	     36.27718265	      0.00000000	      0.00000000	      0.63315628	     -4.02124896	      0.00000000	      0.00000000
      3.95500000	      0.59234351	    -37.75163386	      5.79620493	     -0.00500008	      0.78871667	     -1.16959468	     72.43363506	    -33.18572845	    -10.87528799	     43.83974913	      0.00000000	      0.00000000	      0.76514797	     -1.31947797	      0.00000000	      0.00000000	     66.50525528	    -22.77809267	    -11.77940209	     36.80513687	      0.00000000	      0.00000000	      0.64237082	     -3.98153941	      0.00000000	      0.00000000
      3.96000000	      0.69361658	    -38.03175979	      5.75379599	     -0.00632986	      0.78715089	     -1.16952698	     73.09011484	    -33.31759093	    -10.87622864	     44.32645378	      0.00000000	      0.00000000	      0.77364256	     -1.27411741	      0.00000000	      0.00000000	     67.32381215	    -22.89454545	    -11.48784038	     37.38144718	      0.00000000	      0.00000000	      0.65242933	     -3.90889627	      0.00000000	      0.00000000
